<?xml version="1.0" encoding="utf-8"?>
<!-- Generator: Adobe Illustrator 28.2.0, SVG Export Plug-In . SVG Version: 6.00 Build 0)  -->
<svg version="1.1" id="Capa_1" xmlns="http://www.w3.org/2000/svg" xmlns:xlink="http://www.w3.org/1999/xlink" x="0px" y="0px"
	 viewBox="0 0 88.58 103.98" style="enable-background:new 0 0 88.58 103.98;" xml:space="preserve">
<path d="M13.14,17.34c0.03-1.71,0.05-3.43,0.1-5.14c0.07-2.12,1.57-3.44,3.54-3.13c1.41,0.22,2.46,1.43,2.52,2.95
	c0.03,0.75,0.01,1.49,0.01,2.38c1.6-0.36,3.11-0.67,4.6-1.05c7.05-1.79,13.91-1.2,20.57,1.69c2.63,1.14,5.28,2.21,8.14,2.7
	c3.83,0.65,7.58,0.29,11.31-0.66c2.44-0.62,4.91-1.17,7.36-1.74c2.29-0.53,4,0.78,4,3.15c0.02,11.01,0.02,22.01,0,33.02
	c0,1.95-0.82,2.93-2.72,3.36c-3.61,0.83-7.2,1.77-10.84,2.42c-5.99,1.08-11.77,0.2-17.4-2.11c-2.61-1.07-5.29-2.06-8.03-2.72
	c-3.96-0.95-7.93-0.45-11.85,0.56c-1.48,0.38-2.96,0.74-4.45,1.05c-0.55,0.11-0.71,0.34-0.7,0.87c0.02,1.78,0.01,3.56,0.01,5.35
	c0,10.47,0,20.95,0,31.42c0,2.25-1.6,3.68-3.64,3.31c-1.18-0.21-2.15-1.19-2.33-2.38c-0.08-0.49-0.08-1-0.08-1.49
	c0-12.32,0-24.64-0.01-36.96c0-0.59-0.06-1.18-0.09-1.77C13.14,40.74,13.14,29.04,13.14,17.34z M19.37,48.02
	c1.39-0.32,2.72-0.6,4.03-0.94c4.56-1.18,9.16-1.44,13.82-0.65c3.41,0.58,6.56,1.92,9.72,3.25c3.98,1.68,8.14,2.46,12.43,1.82
	c2.98-0.44,5.9-1.25,8.87-1.8c0.85-0.16,1-0.52,1-1.3c-0.02-8.44-0.02-16.88-0.02-25.33c0-0.32,0-0.64,0-1.03
	c-1.3,0.31-2.45,0.55-3.6,0.85c-4.58,1.19-9.21,1.58-13.91,0.82c-3.16-0.52-6.18-1.52-9.05-2.9c-7.76-3.73-15.52-2.54-23.31-0.07
	C19.37,29.78,19.37,38.84,19.37,48.02z"/>
</svg>
